<?xml version="1.0" encoding="UTF-8" standalone="no"?>
<!-- Created with Inkscape (http://www.inkscape.org/) -->

<svg
   width="85.875908mm"
   height="93.513885mm"
   viewBox="0 0 85.875908 93.513885"
   version="1.1"
   id="svg1"
   xmlns="http://www.w3.org/2000/svg"
   xmlns:svg="http://www.w3.org/2000/svg">
  <defs
     id="defs1" />
  <g
     id="layer1"
     transform="translate(-59.662956,-55.358268)">
    <path
       style="fill:#3544d0;fill-opacity:1;stroke:#434343;stroke-width:5;stroke-dasharray:none;stroke-opacity:1"
       d="M 115.37156,77.862119 V 65.699147"
       id="path33" />
    <circle
       style="fill:#2563eb;fill-opacity:1;stroke:#434343;stroke-width:5;stroke-dasharray:none;stroke-opacity:1"
       id="path32"
       cx="115.37156"
       cy="105.52943"
       r="27.667305" />
    <path
       style="fill:#3544d0;fill-opacity:1;stroke:#135061;stroke-width:2.6;stroke-dasharray:none;stroke-opacity:1"
       d="M 115.37156,65.699147 Z"
       id="path34" />
    <path
       style="fill:#3544d0;fill-opacity:1;stroke:#434343;stroke-width:5;stroke-dasharray:none;stroke-opacity:1"
       d="m 115.37156,65.699147 h 10.39538 z"
       id="path35" />
    <path
       style="fill:#3544d0;fill-opacity:1;stroke:#135061;stroke-width:2.6;stroke-dasharray:none;stroke-opacity:1"
       d="m 115.37156,65.699147 h -8.37581"
       id="path36" />
    <path
       style="fill:#3544d0;fill-opacity:1;stroke:#434343;stroke-width:5;stroke-dasharray:none;stroke-opacity:1"
       d="m 105.98596,65.699147 h 10.39538 z"
       id="path37" />
    <path
       style="fill:#3544d0;fill-opacity:1;stroke:#434343;stroke-width:5;stroke-dasharray:none;stroke-opacity:1"
       d="m 134.03021,77.129889 c 9.62732,9.627319 9.86922,9.772454 9.86922,9.772454"
       id="path38" />
    <path
       style="fill:#3544d0;fill-opacity:1;stroke:#434343;stroke-width:5;stroke-dasharray:none;stroke-opacity:1"
       d="m 115.37156,86.315067 v 18.859763 0"
       id="path45" />
    <path
       style="fill:#3544d0;fill-opacity:1;stroke:#434343;stroke-width:5;stroke-dasharray:none;stroke-opacity:1"
       d="m 125.94451,93.984018 -10.57295,11.190812 v 0"
       id="path46" />
    <g
       id="g46"
       transform="translate(24.85309,-11.756454)">
      <path
         id="rect8"
         style="fill:#7dd3fc;fill-opacity:1;stroke:#434343;stroke-width:5;stroke-dasharray:none;stroke-opacity:1"
         d="m 64.554715,69.614771 c -0.476692,0.0013 -0.9607,0.378921 -1.10691,0.833024 l -2.072225,6.4363 H 49.499303 c 1.38e-4,6.732181 -5.457256,12.189806 -12.189437,12.189954 v 7.824845 h 8.250142 l 9.633521,-4.219381 h 1.096057 l -5.437394,16.887857 c -0.124264,0.38618 0.163796,0.78141 0.569474,0.78135 l 3.506245,0.10648 c -4.922973,0.64443 -4.528566,2.09308 -4.528922,3.82196 -1.97e-4,1.0269 1.144892,2.01882 3.222026,2.79105 -0.626609,3.28994 -2.304542,6.74357 -3.677812,9.09557 -1.271887,2.17835 -1.962184,4.65619 -1.962154,7.21041 5e-6,1.94239 0.39141,3.46816 1.102775,4.66483 -1.792882,0.61117 -2.746853,1.32409 -2.746602,2.05259 v 0.002 14.26166 c -10e-7,6.9e-4 -10e-7,0.001 0,0.002 -5.47e-4,2.08285 7.635129,3.77139 17.054256,3.77134 9.418921,-1e-5 17.054291,-1.68853 17.053741,-3.77134 v -14.26476 c 5.5e-4,-0.72869 -0.95362,-1.4418 -2.74712,-2.05311 0.71153,-1.19674 1.10277,-2.72217 1.10277,-4.66483 3e-5,-2.55422 -0.69027,-5.03205 -1.96215,-7.21041 -1.37327,-2.35199 -3.05069,-5.80563 -3.67729,-9.09557 2.07694,-0.77225 3.22184,-1.76417 3.2215,-2.79105 -2.7e-4,-1.72884 1.88514,-3.17747 -3.03763,-3.82196 l 2.69347,-0.10648 c 0.45334,-1.9e-4 0.82072,-0.3678 0.82062,-0.82114 V 89.874517 c 0,-10.770128 -5.36824,-19.529735 -12.20959,-20.255095 -0.03161,-0.0034 -0.0633,-0.0047 -0.09508,-0.0047 z" />
      <path
         style="fill:none;fill-opacity:1;stroke:#434343;stroke-width:5;stroke-dasharray:none;stroke-opacity:1"
         d="m 49.082341,138.03902 c 10.259605,1.68036 19.829246,1.90413 28.391058,2.6e-4"
         id="path23" />
      <path
         style="fill:none;fill-opacity:1;stroke:#434343;stroke-width:5;stroke-dasharray:none;stroke-opacity:1"
         d="m 53.174788,110.40196 21.079191,0.0535"
         id="path24" />
      <path
         style="fill:none;fill-opacity:1;stroke:#e2efff;stroke-width:1;stroke-dasharray:none;stroke-opacity:1"
         d="m 40.053683,91.872011 c 0,0 10.208237,-3.243947 11.855667,-12.214928 0.25961,-1.41369 -0.163843,1.119069 -0.119756,0.119753 l 11.376649,0.119755 2.27533,-7.424761"
         id="path47" />
      <path
         style="fill:none;fill-opacity:1;stroke:#ffffff;stroke-width:1;stroke-dasharray:none;stroke-opacity:1"
         d="m 79.438801,94.807722 c 0,0 3.99619,-2.823395 11.423893,-2.736522"
         id="path49" />
    </g>
  </g>
</svg>
