<?xml version="1.0" encoding="UTF-8" standalone="no"?>
<!-- Created with Inkscape (http://www.inkscape.org/) -->

<svg
   width="8.4953709mm"
   height="6.1655159mm"
   viewBox="0 0 8.4953709 6.1655159"
   version="1.1"
   id="svg1"
   xml:space="preserve"
   inkscape:version="1.4.3 (0d15f75, 2025-12-25)"
   sodipodi:docname="chessrepeat.svg"
   xmlns:inkscape="http://www.inkscape.org/namespaces/inkscape"
   xmlns:sodipodi="http://sodipodi.sourceforge.net/DTD/sodipodi-0.dtd"
   xmlns="http://www.w3.org/2000/svg"
   xmlns:svg="http://www.w3.org/2000/svg"><sodipodi:namedview
     id="namedview1"
     pagecolor="#ffffff"
     bordercolor="#000000"
     borderopacity="0.25"
     inkscape:showpageshadow="2"
     inkscape:pageopacity="0.0"
     inkscape:pagecheckerboard="0"
     inkscape:deskcolor="#d1d1d1"
     inkscape:document-units="mm"
     inkscape:zoom="10.684219"
     inkscape:cx="394.50708"
     inkscape:cy="514.96512"
     inkscape:window-width="1920"
     inkscape:window-height="1113"
     inkscape:window-x="0"
     inkscape:window-y="0"
     inkscape:window-maximized="1"
     inkscape:current-layer="layer1"><inkscape:page
       x="0"
       y="-5.5215306e-22"
       width="8.4953709"
       height="6.1655154"
       id="page2"
       margin="0"
       bleed="0" /></sodipodi:namedview><defs
     id="defs1"><inkscape:path-effect
       effect="fillet_chamfer"
       id="path-effect13"
       is_visible="true"
       lpeversion="1"
       nodesatellites_param="F,0,0,1,0,0,0,1 @ F,0,0,1,0,0,0,1 @ F,0,0,1,0,0,0,1"
       radius="0"
       unit="px"
       method="auto"
       mode="F"
       chamfer_steps="1"
       flexible="false"
       use_knot_distance="true"
       apply_no_radius="true"
       apply_with_radius="true"
       only_selected="false"
       hide_knots="false" /></defs><g
     inkscape:label="Layer 1"
     inkscape:groupmode="layer"
     id="layer1"
     transform="translate(-106.0419,-132.62034)"><g
       style="fill:none;stroke:#404040;stroke-width:2;stroke-linecap:round;stroke-linejoin:round;stroke-opacity:1"
       id="g1"
       transform="matrix(0.26458333,0,0,0.26458333,105.10562,132.70032)"
       inkscape:export-filename="g1.png"
       inkscape:export-xdpi="96"
       inkscape:export-ydpi="96"><path
         d="m 5,20 a 2,2 0 0 1 2,-2 h 10 a 2,2 0 0 1 2,2 v 1 a 1,1 0 0 1 -1,1 H 6 A 1,1 0 0 1 5,21 Z"
         id="path1"
         style="stroke:#404040;stroke-opacity:1" /><path
         d="M 16.5,18 C 17.5,16 19,13 19,9 A 7,7 0 0 0 12,2 H 6.635 A 1,1 0 0 0 5.867,3.64 L 7,5 4.68,10.802 a 2,2 0 0 0 0.95,2.526 l 2.87,1.456"
         id="path2"
         style="stroke:#404040;stroke-opacity:1" /><path
         d="M 15,5 16.425,3.575"
         id="path3"
         style="stroke:#404040;stroke-opacity:1" /><path
         d="M 17,8 18.53,6.47"
         id="path4"
         style="stroke:#404040;stroke-opacity:1" /><path
         d="M 9.713,12.185 7,18"
         id="path5"
         style="stroke:#404040;stroke-opacity:1" /></g><rect
       style="fill:#161616;stroke:#404040;stroke-width:0.450501;stroke-dasharray:none;stroke-opacity:1"
       id="rect7"
       width="0.43372592"
       height="0.14233662"
       x="-61.991165"
       y="160.8278"
       ry="0.071168311"
       transform="rotate(-59.647193)"
       inkscape:transform-center-x="0.031825221"
       inkscape:transform-center-y="0.094273531" /><path
       style="fill:none;stroke:#404040;stroke-width:0.4;stroke-dasharray:none;stroke-opacity:1"
       id="path10"
       sodipodi:type="arc"
       sodipodi:cx="-168.56642"
       sodipodi:cy="47.570503"
       sodipodi:rx="2.8996241"
       sodipodi:ry="2.8996241"
       sodipodi:start="0"
       sodipodi:end="1.7149799"
       sodipodi:open="true"
       sodipodi:arc-type="arc"
       transform="rotate(-113.44669)"
       inkscape:path-effect="#path-effect13"
       d="m -165.6668,47.570503 c 0,0.841734 -0.36577,1.641926 -1.00229,2.192703 -0.63652,0.550778 -1.48096,0.797778 -2.31396,0.676834" /><path
       style="fill:none;stroke:#404040;stroke-width:0.4;stroke-dasharray:none;stroke-opacity:1"
       id="path11"
       sodipodi:type="arc"
       sodipodi:cx="113.9828"
       sodipodi:cy="132.91449"
       sodipodi:rx="2.8996241"
       sodipodi:ry="2.8996241"
       sodipodi:start="0.15000049"
       sodipodi:end="1.6338852"
       sodipodi:open="true"
       sodipodi:arc-type="arc"
       d="m 116.84987,133.34781 a 2.8996241,2.8996241 0 0 1 -3.04988,2.46054"
       transform="rotate(1.4136912)" /><path
       style="fill:none;stroke:#404040;stroke-width:0.4;stroke-dasharray:none;stroke-opacity:1"
       d="m 112.26033,136.91117 0.0329,-0.003 1.23124,-0.71814 0.32625,0.45607 0.52978,0.66881"
       id="path12"
       sodipodi:nodetypes="ccccc" /></g></svg>
