<?xml version="1.0" encoding="UTF-8" standalone="no"?>
<!-- Created with Inkscape (http://www.inkscape.org/) -->

<svg
   width="95.674324mm"
   height="90.475922mm"
   viewBox="0 0 95.674324 90.475922"
   version="1.1"
   id="svg1"
   xmlns="http://www.w3.org/2000/svg"
   xmlns:svg="http://www.w3.org/2000/svg">
  <defs
     id="defs1" />
  <g
     id="layer1"
     transform="translate(-65.51592,-69.784659)">
    <path
       id="path3"
       style="fill:#000000;stroke:#000000;stroke-width:0.576893"
       d="m 134.486,115.09328 c 0.0639,0.29377 0.12197,0.59775 0.17622,0.91467 v 5.2e-4 5.2e-4 c -0.67561,3.94652 -2.59997,3.33899 -7.75611,8.37158 -8.21469,8.01785 -8.68983,21.12437 -6.58513,23.0203 0.31354,0.28244 8.0565,0.49661 8.53178,0.49661 h 5.92108 5.9216 5.92161 c 0.47528,0 9.16546,-0.0638 9.479,-0.34623 2.10469,-1.89593 0.68182,-15.15283 -7.53287,-23.17068 -5.15642,-5.03286 -6.76796,-4.425 -7.44347,-8.37158 0.0543,-0.31717 0.11258,-0.62172 0.17673,-0.91571 z" />
    <path
       id="rect8"
       style="stroke:#000000;stroke-width:1.1437"
       d="m 83.467704,115.55331 -0.05186,0.93627 c -0.21026,3.78786 -2.277061,8.15012 -3.912083,10.95042 -1.271887,2.17835 -1.962056,4.65621 -1.962026,7.21043 1.9e-5,8.15508 6.899451,8.95765 15.410131,8.95762 8.510584,-9e-5 15.409534,-0.80263 15.409564,-8.95762 3e-5,-2.55422 -0.69015,-5.03207 -1.96203,-7.21043 -1.63502,-2.80029 -3.70184,-7.16256 -3.91208,-10.95042 l -0.0519,-0.93627 z" />
    <path
       id="path9"
       style="fill:#000000;stroke:#000000;stroke-width:1.71322"
       d="m 92.951868,137.59603 a 17.053852,3.7711209 0 0 0 -17.054174,3.77132 17.053852,3.7711209 0 0 0 0,0.002 v 14.2613 a 17.053852,3.7711209 0 0 0 0,0.002 17.053852,3.7711209 0 0 0 17.054174,3.77132 17.053852,3.7711209 0 0 0 17.053612,-3.77132 v -14.26472 a 17.053852,3.7711209 0 0 0 -17.053612,-3.77132 z" />
    <ellipse
       style="fill:#000000;stroke:#000000;stroke-width:2.20549"
       id="path10"
       cx="92.951584"
       cy="115.55341"
       rx="12.992069"
       ry="4.2338357" />
    <path
       id="rect10"
       style="stroke:#000000;stroke-width:2"
       d="m 89.902735,69.468343 c 6.203928,0.657776 11.072155,8.601408 11.072155,18.368063 v 17.821934 a 0.74446696,0.74446696 135 0 1 -0.74447,0.74447 H 77.907081 a 0.54240475,0.54240475 53.923617 0 1 -0.516303,-0.70864 L 88.812677,70.21962 c 0.141426,-0.439246 0.631391,-0.799908 1.090058,-0.751277 z"
       transform="matrix(1.1027447,0,0,1.1027447,-4.9294139,-5.7104345)" />
    <path
       id="path16"
       style="fill:#000000;stroke:#000000;stroke-width:0.576893"
       d="m 134.64258,117.38976 c 0.0639,-0.29377 0.12197,-0.59775 0.17622,-0.91467 v -5.2e-4 -5.2e-4 c -0.67561,-3.94652 -2.59997,-3.33899 -7.75611,-8.37158 -8.21469,-8.01785 -8.68983,-21.124375 -6.58513,-23.020305 0.31354,-0.28244 8.0565,-0.49661 8.53178,-0.49661 h 5.92108 5.9216 5.92161 c 0.47528,0 9.16546,0.0638 9.479,0.34623 2.10469,1.89593 0.68182,15.152835 -7.53287,23.170685 -5.15642,5.03286 -6.76796,4.425 -7.44347,8.37158 0.0543,0.31717 0.11258,0.62172 0.17673,0.91571 z" />
    <path
       id="rect17"
       style="stroke:#000000;stroke-width:2.059"
       d="M 77.630596,76.103767 H 94.19128 V 88.112 H 81.95952 l -7.323732,3.207547 h -6.272186 v -5.948786 a 9.2669943,9.2669943 135 0 0 9.266994,-9.266994 z"
       transform="matrix(1.3153893,0,0,1.3153893,-23.054632,-21.94595)" />
    <path
       id="path19"
       style="fill:#368ab1;fill-opacity:1;stroke:#000000;stroke-width:0.437401"
       d="m 135.51962,114.14979 c 0.0485,-0.22274 0.0925,-2.58172 0.13361,-2.82201 v -4e-4 -3.9e-4 c -0.51225,-2.99226 -1.9713,-2.53163 -5.88069,-6.34735 -6.2284,-6.079146 -6.58865,-16.016536 -4.99286,-17.454033 0.23773,-0.214146 6.10845,-0.37653 6.46881,-0.37653 h 4.48937 4.48977 4.48977 c 0.36036,0 6.94927,0.04837 7.187,0.262512 1.59578,1.437497 0.51696,11.488905 -5.71144,17.568051 -3.9096,3.81592 -5.13148,3.35504 -5.64365,6.34735 0.0412,0.24048 0.0854,2.5999 0.134,2.8228 z" />
    <path
       id="path20"
       style="fill:#4036b1;fill-opacity:1;stroke:#000000;stroke-width:0.437401"
       d="m 135.36304,124.22508 c 0.0485,0.22274 0.0925,-2.0249 0.13361,-1.78461 v 4e-4 3.9e-4 c -0.51225,2.99226 -1.9713,2.53163 -5.88069,6.34735 -6.2284,6.07914 -6.58865,16.01653 -4.99286,17.45403 0.23773,0.21415 6.10845,0.37653 6.46881,0.37653 h 4.48937 4.48977 4.48977 c 0.36036,0 6.94927,-0.0484 7.187,-0.26251 1.59578,-1.4375 0.51696,-11.48891 -5.71144,-17.56805 -3.9096,-3.81592 -5.13148,-3.35504 -5.64365,-6.34735 0.0412,-0.24048 0.0854,2.00672 0.134,1.78382 z" />
    <rect
       style="fill:#000000;fill-opacity:1;stroke:#000000;stroke-width:1.90704;stroke-opacity:1"
       id="rect20"
       width="44.69101"
       height="9.8692389"
       x="115.54572"
       y="74.716316"
       ry="2.1540022" />
    <rect
       style="fill:#000000;fill-opacity:1;stroke:#000000;stroke-width:1.90704;stroke-opacity:1"
       id="rect21"
       width="44.69101"
       height="9.8692389"
       x="115.38914"
       y="147.89748"
       ry="2.1540022" />
  </g>
</svg>
