<?xml version="1.0" encoding="UTF-8" standalone="no"?>
<!-- Created with Inkscape (http://www.inkscape.org/) -->

<svg
   width="94.502647mm"
   height="89.657166mm"
   viewBox="0 0 94.502647 89.657166"
   version="1.1"
   id="svg1"
   xmlns="http://www.w3.org/2000/svg"
   xmlns:svg="http://www.w3.org/2000/svg">
  <defs
     id="defs1" />
  <g
     id="layer1"
     transform="translate(-66.298484,-70.318908)">
    <path
       id="path3"
       style="fill:#312a2a;fill-opacity:1;stroke:#000000;stroke-width:0.576893;stroke-opacity:1"
       d="m 116.68125,84.467712 c -0.73951,0 -1.33532,0.59529 -1.33532,1.334803 v 3.446301 c 0,0.739513 0.59581,1.334802 1.33532,1.334802 h 6.80269 c -1.56427,0.08183 -2.881,0.184051 -3.00654,0.29714 -2.1047,1.89593 -1.62956,15.002452 6.58513,23.020302 4.526,4.41755 6.56168,4.48938 7.44864,7.11016 0.054,0.25661 0.10395,0.52108 0.15089,0.7953 v 5.2e-4 5.1e-4 c -0.67561,3.94652 -2.59997,3.33899 -7.75611,8.37158 -8.21469,8.01785 -8.68983,21.12437 -6.58513,23.0203 0.044,0.0396 0.23472,0.0782 0.53072,0.11473 h -4.24264 c -0.74202,0 -1.33945,0.47879 -1.33945,1.07383 v 2.77296 c 0,0.59505 0.59743,1.07435 1.33945,1.07435 h 42.56433 c 0.74202,0 1.33945,-0.4793 1.33945,-1.07435 v -2.77296 c 0,-0.59504 -0.59743,-1.07383 -1.33945,-1.07383 h -3.03909 c 2.04903,-2.02135 0.59353,-15.16602 -7.57112,-23.13503 -4.45658,-4.34979 -6.2652,-4.486 -7.11016,-6.99078 -0.0641,-0.29396 -0.12243,-0.59857 -0.17673,-0.91571 0.67551,-3.94658 2.28705,-3.33872 7.44347,-8.37158 8.21469,-8.01785 9.63757,-21.274751 7.53288,-23.170681 -0.0639,-0.05753 -0.47522,-0.106065 -1.09399,-0.146761 h 3.94291 c 0.73951,0 1.3348,-0.595289 1.3348,-1.334802 v -3.446301 c 0,-0.739513 -0.59529,-1.334803 -1.3348,-1.334803 z" />
    <path
       id="rect8"
       style="fill:#161616;fill-opacity:1;stroke:#000000;stroke-width:1.1437;stroke-opacity:1"
       d="m 94.115186,70.890763 c -0.476692,0.0013 -0.9607,0.378921 -1.10691,0.833024 l -2.072225,6.4363 H 79.059774 A 12.189705,12.189705 0 0 1 66.870337,90.350041 v 7.824845 h 8.250142 L 84.754,93.955505 h 1.096057 l -5.437394,16.887855 a 0.59813397,0.59813397 0 0 0 0.569474,0.78135 h 7.126697 a 12.992069,4.2338357 0 0 0 -8.149374,3.92844 12.992069,4.2338357 0 0 0 3.222026,2.79105 c -0.626609,3.28994 -2.304542,6.74357 -3.677812,9.09557 -1.271887,2.17835 -1.962184,4.65619 -1.962154,7.21041 5e-6,1.94239 0.39141,3.46816 1.102775,4.66483 a 17.053852,3.7711209 0 0 0 -2.746602,2.05259 17.053852,3.7711209 0 0 0 0,0.002 v 14.26166 a 17.053852,3.7711209 0 0 0 0,0.002 17.053852,3.7711209 0 0 0 17.054256,3.77134 17.053852,3.7711209 0 0 0 17.053741,-3.77134 V 141.3685 a 17.053852,3.7711209 0 0 0 -2.74712,-2.05311 c 0.71153,-1.19674 1.10277,-2.72217 1.10277,-4.66483 3e-5,-2.55422 -0.69027,-5.03205 -1.96215,-7.21041 -1.37327,-2.35199 -3.05069,-5.80563 -3.67729,-9.09557 a 12.992069,4.2338357 0 0 0 3.2215,-2.79105 12.992069,4.2338357 0 0 0 -8.148852,-3.92844 h 7.804692 a 0.82095699,0.82095699 0 0 0 0.82062,-0.82114 V 91.150509 c 0,-10.770128 -5.36824,-19.529735 -12.20959,-20.255095 -0.03161,-0.0034 -0.0633,-0.0047 -0.09508,-0.0047 z" />
    <path
       id="path19"
       style="fill:#368ab1;fill-opacity:1;stroke:#000000;stroke-width:0.437401;stroke-opacity:1"
       d="m 135.51962,119.94847 c 0.0485,-0.22274 0.0925,-2.58172 0.13361,-2.82201 v -4e-4 -3.9e-4 c -0.51225,-2.99226 -1.9713,-2.53163 -5.88069,-6.34735 -6.2284,-6.07914 -6.58865,-16.016534 -4.99286,-17.454031 0.23773,-0.214146 6.10845,-0.37653 6.46881,-0.37653 h 4.48937 4.48977 4.48977 c 0.36036,0 6.94927,0.04837 7.187,0.262512 1.59578,1.437497 0.51696,11.488909 -5.71144,17.568049 -3.9096,3.81592 -5.13148,3.35504 -5.64365,6.34735 0.0412,0.24048 0.0854,2.5999 0.134,2.8228 z" />
    <path
       id="path20"
       style="fill:#4036b1;fill-opacity:1;stroke:#000000;stroke-width:0.437401;stroke-opacity:1"
       d="m 135.36304,130.02376 c 0.0485,0.22274 0.0925,-2.0249 0.13361,-1.78461 v 4e-4 3.9e-4 c -0.51225,2.99226 -1.9713,2.53163 -5.88069,6.34735 -6.2284,6.07914 -6.58865,16.01653 -4.99286,17.45403 0.23773,0.21415 6.10845,0.37653 6.46881,0.37653 h 4.48937 4.48977 4.48977 c 0.36036,0 6.94927,-0.0484 7.187,-0.26251 1.59578,-1.4375 0.51696,-11.48891 -5.71144,-17.56805 -3.9096,-3.81592 -5.13148,-3.35504 -5.64365,-6.34735 0.0412,-0.24048 0.0854,2.00672 0.134,1.78382 z" />
  </g>
</svg>
